<svg width="100%" height="100%"  viewBox="0 0 21 21" fill="none" xmlns="http://www.w3.org/2000/svg">
<path d="M6.30583 21C5.72779 21 5.23296 20.7944 4.82133 20.3831C4.4097 19.9719 4.20388 19.4775 4.20388 18.9C4.20388 18.3225 4.4097 17.8281 4.82133 17.4169C5.23296 17.0056 5.72779 16.8 6.30583 16.8C6.88386 16.8 7.37869 17.0056 7.79032 17.4169C8.20195 17.8281 8.40777 18.3225 8.40777 18.9C8.40777 19.4775 8.20195 19.9719 7.79032 20.3831C7.37869 20.7944 6.88386 21 6.30583 21ZM16.8155 21C16.2375 21 15.7427 20.7944 15.331 20.3831C14.9194 19.9719 14.7136 19.4775 14.7136 18.9C14.7136 18.3225 14.9194 17.8281 15.331 17.4169C15.7427 17.0056 16.2375 16.8 16.8155 16.8C17.3936 16.8 17.8884 17.0056 18.3 17.4169C18.7117 17.8281 18.9175 18.3225 18.9175 18.9C18.9175 19.4775 18.7117 19.9719 18.3 20.3831C17.8884 20.7944 17.3936 21 16.8155 21ZM5.4125 4.2L7.93483 9.45H15.2916L18.1818 4.2H5.4125ZM4.41408 2.1H19.9159C20.3188 2.1 20.6253 2.27937 20.8355 2.63812C21.0457 2.99687 21.0545 3.36 20.8618 3.7275L17.1308 10.4475C16.9382 10.7975 16.6798 11.0687 16.3557 11.2612C16.0317 11.4537 15.677 11.55 15.2916 11.55H7.46189L6.30583 13.65H18.9175V15.75H6.30583C5.5176 15.75 4.92205 15.4044 4.51918 14.7131C4.1163 14.0219 4.09879 13.335 4.46663 12.6525L5.88544 10.08L2.10194 2.1H0V0H3.41566L4.41408 2.1Z" fill="#8E87D8"/>
</svg>
