<svg width="100%" height="100%" viewBox="0 0 23 23" fill="none" xmlns="http://www.w3.org/2000/svg">
<path d="M13.3528 0.641032C12.8343 0.227049 12.1781 0 11.5 0C10.8219 0 10.1657 0.227049 9.64722 0.641032L1.02222 7.53515C0.702087 7.79076 0.444742 8.10953 0.268177 8.46918C0.0916115 8.82882 8.65423e-05 9.22066 0 9.6173V20.8815C0 22.0509 1.00178 23 2.23611 23H6.06944C6.6625 23 7.23126 22.7768 7.65061 22.3795C8.06997 21.9822 8.30556 21.4434 8.30556 20.8815V16.0357C8.30556 15.2125 8.99811 14.5443 9.86061 14.5225H13.1394C13.5556 14.5329 13.9512 14.6969 14.2416 14.9796C14.5321 15.2622 14.6946 15.6412 14.6944 16.0357V20.8815C14.6944 22.0509 15.6962 23 16.9306 23H20.7639C21.3569 23 21.9257 22.7768 22.3451 22.3795C22.7644 21.9822 23 21.4434 23 20.8815V9.61609C22.9999 9.21945 22.9084 8.82761 22.7318 8.46797C22.5553 8.10832 22.2979 7.78955 21.9778 7.53394L13.3528 0.641032Z" fill="#8E87D8"/>
</svg>
