<svg width="100%" height="100%" viewBox="0 0 25 25" fill="none" xmlns="http://www.w3.org/2000/svg">
<path d="M7.50694 25C6.8188 25 6.22971 24.7552 5.73968 24.2656C5.24964 23.776 5.00462 23.1875 5.00462 22.5C5.00462 21.8125 5.24964 21.224 5.73968 20.7344C6.22971 20.2448 6.8188 20 7.50694 20C8.19507 20 8.78416 20.2448 9.27419 20.7344C9.76423 21.224 10.0092 21.8125 10.0092 22.5C10.0092 23.1875 9.76423 23.776 9.27419 24.2656C8.78416 24.7552 8.19507 25 7.50694 25ZM20.0185 25C19.3304 25 18.7413 24.7552 18.2512 24.2656C17.7612 23.776 17.5162 23.1875 17.5162 22.5C17.5162 21.8125 17.7612 21.224 18.2512 20.7344C18.7413 20.2448 19.3304 20 20.0185 20C20.7066 20 21.2957 20.2448 21.7858 20.7344C22.2758 21.224 22.5208 21.8125 22.5208 22.5C22.5208 23.1875 22.2758 23.776 21.7858 24.2656C21.2957 24.7552 20.7066 25 20.0185 25ZM6.44345 5L9.44623 11.25H18.2043L21.645 5H6.44345ZM5.25486 2.5H23.7094C24.189 2.5 24.5539 2.71354 24.8042 3.14062C25.0544 3.56771 25.0648 4 24.8354 4.4375L20.3938 12.4375C20.1645 12.8542 19.8569 13.1771 19.4711 13.4062C19.0853 13.6354 18.6631 13.75 18.2043 13.75H8.88321L7.50694 16.25H22.5208V18.75H7.50694C6.56857 18.75 5.85958 18.3385 5.37997 17.5156C4.90036 16.6927 4.87951 15.875 5.31741 15.0625L7.00647 12L2.50231 2.5H0V0H4.06626L5.25486 2.5Z" fill="url(#paint0_linear_4711_4335)"/>
<defs>
<linearGradient id="paint0_linear_4711_4335" x1="0" y1="12.5" x2="25" y2="12.5" gradientUnits="userSpaceOnUse">
<stop stop-color="#FF6A00"/>
<stop offset="1" stop-color="#EE0979"/>
</linearGradient>
</defs>
</svg>
