<svg width="100%" height="100%" viewBox="0 0 26 27" fill="none" xmlns="http://www.w3.org/2000/svg">
<path d="M15.0944 0.752516C14.5083 0.266535 13.7665 0 13 0C12.2335 0 11.4917 0.266535 10.9056 0.752516L1.15556 8.84561C0.793664 9.14568 0.502752 9.51989 0.303156 9.94208C0.103561 10.3643 9.78304e-05 10.8243 0 11.2899V24.5131C0 25.8859 1.13244 27 2.52778 27H6.86111C7.53152 27 8.17447 26.738 8.64852 26.2716C9.12257 25.8052 9.38889 25.1727 9.38889 24.5131V18.8245C9.38889 17.8581 10.1718 17.0737 11.1468 17.0481H14.8532C15.3238 17.0604 15.7709 17.2529 16.0992 17.5847C16.4276 17.9165 16.6113 18.3614 16.6111 18.8245V24.5131C16.6111 25.8859 17.7436 27 19.1389 27H23.4722C24.1426 27 24.7856 26.738 25.2596 26.2716C25.7337 25.8052 26 25.1727 26 24.5131V11.2885C25.9999 10.8228 25.8964 10.3628 25.6968 9.94066C25.4972 9.51847 25.2063 9.14426 24.8444 8.84419L15.0944 0.752516Z" fill="url(#paint0_linear_3591_2887)"/>
<defs>
<linearGradient id="paint0_linear_3591_2887" x1="0" y1="13.5" x2="26" y2="13.5" gradientUnits="userSpaceOnUse">
<stop stop-color="#FF6A00"/>
<stop offset="1" stop-color="#EE0979"/>
</linearGradient>
</defs>
</svg>
