<svg width="100%" height="100%"  viewBox="0 0 26 30" fill="none" xmlns="http://www.w3.org/2000/svg">
<path d="M21.4997 12H19.9997V11.6413C20.504 11.071 20.8348 10.3686 20.9534 9.61673C21.0719 8.86482 20.9732 8.09469 20.6689 7.39699C20.3645 6.69928 19.8672 6.10302 19.2355 5.67838C18.6037 5.25374 17.8638 5.01839 17.1029 5.00003C16.7839 3.8863 16.191 2.87018 15.3785 2.04441C14.7435 1.39449 13.9845 0.878661 13.1464 0.527492C12.3084 0.176323 11.4084 -0.00303821 10.4997 3.89326e-05C8.63037 3.89326e-05 6.8885 0.767538 5.56225 2.16754C4.91132 1.96014 4.21393 1.94777 3.55606 2.13196C2.89819 2.31615 2.30861 2.68885 1.86001 3.2041C1.41141 3.71935 1.12341 4.35462 1.03152 5.03158C0.939627 5.70854 1.04786 6.39759 1.34288 7.01378C0.869448 7.43398 0.502661 7.96068 0.272756 8.55047C0.0428515 9.14026 -0.0435867 9.77625 0.0205669 10.406C0.0847206 11.0358 0.297629 11.6412 0.641741 12.1726C0.985853 12.7039 1.45132 13.1458 1.99976 13.4619V26.5C2.00075 27.428 2.36982 28.3176 3.02598 28.9738C3.68214 29.6299 4.5718 29.999 5.49975 30H16.4997C17.4277 29.999 18.3174 29.6299 18.9735 28.9738C19.6297 28.3176 19.9987 27.428 19.9997 26.5V26H21.4997C22.6928 25.9987 23.8366 25.5242 24.6802 24.6805C25.5239 23.8369 25.9984 22.6931 25.9997 21.5V16.5C25.9984 15.307 25.5239 14.1631 24.6802 13.3195C23.8366 12.4759 22.6928 12.0013 21.4997 12ZM7.99975 25C7.99975 25.2652 7.89439 25.5196 7.70686 25.7071C7.51932 25.8946 7.26497 26 6.99975 26C6.73453 26 6.48018 25.8946 6.29264 25.7071C6.10511 25.5196 5.99975 25.2652 5.99975 25V15C5.99975 14.7348 6.10511 14.4805 6.29264 14.2929C6.48018 14.1054 6.73453 14 6.99975 14C7.26497 14 7.51932 14.1054 7.70686 14.2929C7.89439 14.4805 7.99975 14.7348 7.99975 15V25ZM11.9997 25C11.9997 25.2652 11.8944 25.5196 11.7069 25.7071C11.5193 25.8946 11.265 26 10.9997 26C10.7345 26 10.4802 25.8946 10.2926 25.7071C10.1051 25.5196 9.99975 25.2652 9.99975 25V15C9.99975 14.7348 10.1051 14.4805 10.2926 14.2929C10.4802 14.1054 10.7345 14 10.9997 14C11.265 14 11.5193 14.1054 11.7069 14.2929C11.8944 14.4805 11.9997 14.7348 11.9997 15V25ZM15.9997 25C15.9997 25.2652 15.8944 25.5196 15.7068 25.7071C15.5193 25.8946 15.265 26 14.9997 26C14.7345 26 14.4802 25.8946 14.2926 25.7071C14.1051 25.5196 13.9997 25.2652 13.9997 25V15C13.9997 14.7348 14.1051 14.4805 14.2926 14.2929C14.4802 14.1054 14.7345 14 14.9997 14C15.265 14 15.5193 14.1054 15.7068 14.2929C15.8944 14.4805 15.9997 14.7348 15.9997 15V25ZM16.9997 11C16.4791 11 15.7154 10.6763 15.3316 10.2932C15.1442 10.1056 14.8899 10.0001 14.6247 10H6.99975C6.79489 10.0005 6.59511 10.0639 6.42744 10.1816C6.25976 10.2993 6.13229 10.4656 6.06225 10.6582C5.63538 11.8256 4.58725 12 3.99975 12C3.46932 12 2.96061 11.7893 2.58554 11.4142C2.21047 11.0392 1.99976 10.5305 1.99976 10C1.99976 9.46959 2.21047 8.96089 2.58554 8.58582C2.96061 8.21074 3.46932 8.00003 3.99975 8.00003C4.00538 8.00003 4.56975 8.02128 5.02475 8.36253C5.12981 8.44132 5.24936 8.49865 5.37657 8.53124C5.50378 8.56383 5.63617 8.57105 5.76617 8.55248C5.89617 8.53391 6.02125 8.48991 6.13424 8.423C6.24724 8.3561 6.34596 8.26759 6.42475 8.16253C6.50354 8.05747 6.56087 7.93792 6.59346 7.81071C6.62606 7.6835 6.63327 7.55111 6.6147 7.42111C6.59613 7.29111 6.55213 7.16604 6.48523 7.05304C6.41832 6.94004 6.32981 6.84132 6.22475 6.76253C5.57682 6.29005 4.80129 6.02428 3.99975 6.00003C3.70535 6.00021 3.41188 6.03312 3.12476 6.09816C3.02553 5.86995 2.98464 5.62065 3.00576 5.37271C3.02688 5.12476 3.10936 4.88597 3.24575 4.67784C3.38215 4.46971 3.56818 4.29878 3.78709 4.18046C4.006 4.06214 4.25091 4.00013 4.49975 4.00003C4.736 3.9989 4.9691 4.0541 5.17975 4.16105C5.3904 4.26801 5.57252 4.42364 5.711 4.61503C5.8237 4.77048 5.92222 4.93573 6.00538 5.10878C6.03251 5.36363 6.15646 5.59833 6.35163 5.76444C6.5468 5.93054 6.7983 6.01537 7.0542 6.00142C7.31011 5.98747 7.55089 5.87579 7.72684 5.68945C7.90279 5.5031 8.00048 5.25632 7.99975 5.00003C7.99975 4.57691 7.77412 4.05191 7.32725 3.43753C7.2985 3.39816 7.26475 3.35941 7.23662 3.32128C8.14912 2.46504 9.28975 2.00004 10.4997 2.00004C11.1428 1.99818 11.7797 2.12546 12.3726 2.37432C12.9656 2.62318 13.5025 2.98855 13.9516 3.44878C14.5133 4.02511 14.928 4.72821 15.1606 5.49864C15.3932 6.26906 15.4368 7.08416 15.2879 7.87503C15.2633 8.00405 15.2644 8.13665 15.2911 8.26525C15.3178 8.39385 15.3696 8.51593 15.4435 8.62452C15.5173 8.73311 15.6119 8.82608 15.7217 8.89813C15.8315 8.97017 15.9545 9.01988 16.0835 9.0444C16.1453 9.05602 16.2081 9.06187 16.271 9.0619C16.5035 9.06167 16.7287 8.98042 16.9077 8.83213C17.0868 8.68385 17.2086 8.47779 17.2522 8.2494C17.3284 7.84917 17.3694 7.44304 17.3747 7.03566C17.8636 7.12917 18.3 7.40158 18.5987 7.79967C18.8974 8.19775 19.0369 8.6929 18.99 9.18837C18.9432 9.68385 18.7133 10.144 18.3452 10.4791C17.9772 10.8141 17.4974 10.9998 16.9997 11ZM23.9997 21.5C23.9997 22.1631 23.7363 22.7989 23.2675 23.2678C22.7987 23.7366 22.1628 24 21.4997 24H19.9997V14H21.4997C22.1628 14 22.7987 14.2634 23.2675 14.7323C23.7363 15.2011 23.9997 15.837 23.9997 16.5V21.5Z" fill="url(#paint0_linear_3110_4760)"/>
<defs>
<linearGradient id="paint0_linear_3110_4760" x1="0" y1="15" x2="25.9997" y2="15" gradientUnits="userSpaceOnUse">
<stop stop-color="#FF6A00"/>
<stop offset="1" stop-color="#EE0979"/>
</linearGradient>
</defs>
</svg>
