<svg width="100%" height="100%" viewBox="0 0 48 33" fill="none" xmlns="http://www.w3.org/2000/svg">
<path d="M26.144 4.648C25.632 4.136 25.376 3.528 25.376 2.824C25.376 2.12 25.632 1.496 26.144 0.951999C26.656 0.439999 27.264 0.183999 27.968 0.183999C28.704 0.183999 29.328 0.439999 29.84 0.951999C30.352 1.464 30.608 2.088 30.608 2.824C30.608 3.56 30.352 4.168 29.84 4.648C29.328 5.16 28.704 5.416 27.968 5.416C27.264 5.416 26.656 5.16 26.144 4.648ZM8.144 4.648C7.632 4.136 7.376 3.528 7.376 2.824C7.376 2.12 7.632 1.496 8.144 0.951998C8.656 0.439998 9.264 0.183998 9.968 0.183998C10.704 0.183998 11.328 0.439998 11.84 0.951998C12.352 1.464 12.608 2.088 12.608 2.824C12.608 3.56 12.352 4.168 11.84 4.648C11.328 5.16 10.704 5.416 9.968 5.416C9.264 5.416 8.656 5.16 8.144 4.648ZM24.032 17.9054C29.344 17.9054 34.032 19.0254 38.096 21.2654C42.16 23.5374 45.168 26.5294 47.12 30.2414C47.312 30.5934 47.232 30.8494 46.88 31.0094L45.056 31.8734C44.704 32.0334 44.448 31.9374 44.288 31.5854C42.496 28.2254 39.808 25.6654 36.224 23.9054C32.672 22.1774 28.608 21.3134 24.032 21.3134C19.456 21.3134 15.376 22.1774 11.792 23.9054C8.24 25.6654 5.568 28.2254 3.776 31.5854C3.616 31.9374 3.36 32.0334 3.008 31.8734L1.184 31.0094C0.799998 30.8494 0.687998 30.6414 0.847998 30.3854C2.8 26.6094 5.808 23.5854 9.872 21.3134C13.968 19.0414 18.688 17.9054 24.032 17.9054Z" fill="white"/>
</svg>
