<svg width="100%" height="100%" viewBox="0 0 3 13" fill="none" xmlns="http://www.w3.org/2000/svg">
<path d="M2.916 4.41434L0.167946 4.82461L0.069544 5.36783L0.609554 5.48647C0.962361 5.58654 1.03196 5.73807 0.955161 6.15692L0.069544 11.1145C-0.163261 12.3967 0.195547 13 1.03916 13C1.69318 13 2.45279 12.6398 2.7972 12.1452L2.9028 11.5505C2.66279 11.8021 2.31239 11.9021 2.07958 11.9021C1.74958 11.9021 1.62957 11.6262 1.71478 11.1402L2.916 4.41434ZM3 1.42951C3 1.80864 2.87357 2.17225 2.64852 2.44033C2.42347 2.70842 2.11824 2.85903 1.79998 2.85903C1.48171 2.85903 1.17648 2.70842 0.951433 2.44033C0.726385 2.17225 0.599954 1.80864 0.599954 1.42951C0.599954 1.05038 0.726385 0.686781 0.951433 0.418695C1.17648 0.150609 1.48171 0 1.79998 0C2.11824 0 2.42347 0.150609 2.64852 0.418695C2.87357 0.686781 3 1.05038 3 1.42951Z" fill="url(#paint0_linear_8215_3514)"/>
<defs>
<linearGradient id="paint0_linear_8215_3514" x1="0" y1="6.5" x2="3" y2="6.5" gradientUnits="userSpaceOnUse">
<stop stop-color="#FF6A00"/>
<stop offset="1" stop-color="#EE0979"/>
</linearGradient>
</defs>
</svg>
