<svg width="100%" height="100%" viewBox="0 0 11 11" fill="none" xmlns="http://www.w3.org/2000/svg">
<mask id="mask0_3110_3372" style="mask-type:alpha" maskUnits="userSpaceOnUse" x="0" y="0" width="11" height="11">
<rect width="11" height="11" fill="#D9D9D9"/>
</mask>
<g mask="url(#mask0_3110_3372)">
<path d="M8.24932 9.62523H3.20765V3.66689L6.41599 0.458557L6.9889 1.03147C7.04237 1.08495 7.0863 1.15752 7.12067 1.24918C7.15505 1.34085 7.17224 1.4287 7.17224 1.51272V1.67314L6.66807 3.66689H9.62432C9.86876 3.66689 10.0827 3.75856 10.266 3.94189C10.4493 4.12522 10.541 4.33911 10.541 4.58356V5.50022C10.541 5.5537 10.5333 5.61099 10.5181 5.6721C10.5028 5.73321 10.4875 5.7905 10.4722 5.84397L9.09724 9.07523C9.02849 9.228 8.9139 9.35786 8.75349 9.46481C8.59307 9.57175 8.42501 9.62523 8.24932 9.62523ZM4.12432 8.70856H8.24932L9.62432 5.50022V4.58356H5.49932L6.11807 2.06272L4.12432 4.05647V8.70856ZM3.20765 3.66689V4.58356H1.83265V8.70856H3.20765V9.62523H0.915985V3.66689H3.20765Z" fill="url(#paint0_linear_3110_3372)"/>
</g>
<defs>
<linearGradient id="paint0_linear_3110_3372" x1="0.915985" y1="5.04189" x2="10.541" y2="5.04189" gradientUnits="userSpaceOnUse">
<stop stop-color="#FF6A00"/>
<stop offset="1" stop-color="#EE0979"/>
</linearGradient>
</defs>
</svg>
